<svg width="62" height="62" viewBox="0 0 62 62" fill="none" xmlns="http://www.w3.org/2000/svg">
<path fill-rule="evenodd" clip-rule="evenodd" d="M0 30.9826C0 31.4999 0.213123 31.9939 0.567688 32.3659L19.747 51.739C20.5046 52.5043 21.731 52.5024 22.4866 51.739C23.2442 50.9756 23.2442 49.7356 22.4866 48.9722L6.61269 32.9394L60.0625 32.9394C61.132 32.9394 62 32.0637 62 30.9826C62 29.9014 61.132 29.0257 60.0625 29.0257L6.61462 29.0257L22.4866 12.9929C23.2442 12.2295 23.2423 10.9895 22.4866 10.2261C21.7291 9.46275 20.5026 9.46275 19.747 10.2261L0.567688 29.5992C0.205372 29.9654 0.0058136 30.4691 0 30.9826Z" fill="#1AC073"/>
</svg>
