<svg width="82" height="82" viewBox="0 0 82 82" fill="none" xmlns="http://www.w3.org/2000/svg">
<path d="M54.8333 34.1667V6.83333H20.6667V34.1667C20.6667 35.979 21.3866 37.7171 22.6681 38.9986C23.9496 40.2801 25.6877 41 27.5 41H48C49.8123 41 51.5504 40.2801 52.8319 38.9986C54.1134 37.7171 54.8333 35.979 54.8333 34.1667ZM17.25 0H68.5C70.3123 0 72.0504 0.719938 73.3319 2.00144C74.6134 3.28294 75.3333 5.02102 75.3333 6.83333V17.0833C75.3333 18.8956 74.6134 20.6337 73.3319 21.9152C72.0504 23.1967 70.3123 23.9167 68.5 23.9167H61.6667V34.1667C61.6667 37.7913 60.2268 41.2675 57.6638 43.8305C55.1008 46.3935 51.6246 47.8333 48 47.8333H27.5C23.8754 47.8333 20.3992 46.3935 17.8362 43.8305C15.2732 41.2675 13.8333 37.7913 13.8333 34.1667V3.41667C13.8333 2.51051 14.1933 1.64147 14.8341 1.00072C15.4748 0.359969 16.3438 0 17.25 0ZM61.6667 6.83333V17.0833H68.5V6.83333H61.6667ZM7 54.6667H68.5V61.5H7V54.6667Z" fill="#F3BA00"/>
</svg>
