<svg width="263" height="47" viewBox="0 0 263 47" fill="none" xmlns="http://www.w3.org/2000/svg">
<path d="M19.23 0.709999H27.91L33.16 34.8L37.08 0.709999H46.6L39.25 46H28.12L23.57 18.21L19.02 46H7.89L0.54 0.709999H10.06L13.98 34.8L19.23 0.709999ZM61.7922 28.22V46H51.9922V0.709999H61.7922V19.68H69.5622V0.709999H79.3622V46H69.5622V28.22H61.7922ZM96.177 37.88H107.027V46H86.377V0.709999H107.027V8.69H96.177V19.33H106.327V27.03H96.177V37.88ZM122.495 27.45V46H112.695V0.709999H130.125C135.912 0.709999 138.805 3.79 138.805 9.95V15.2C138.805 18.9333 137.475 21.3133 134.815 22.34C137.149 23.18 138.315 25.0933 138.315 28.08V46H128.515V28.85C128.515 27.9167 128.072 27.45 127.185 27.45H122.495ZM122.495 7.36V20.59H127.675C128.049 20.59 128.352 20.45 128.585 20.17C128.865 19.89 129.005 19.5633 129.005 19.19V8.76C129.005 8.38667 128.865 8.06 128.585 7.78C128.352 7.5 128.049 7.36 127.675 7.36H122.495ZM154.898 37.88H165.748V46H145.098V0.709999H165.748V8.69H154.898V19.33H165.048V27.03H154.898V37.88ZM181.006 30.46V37.95H196.126V46H172.046V29.69C172.046 23.53 174.939 20.45 180.726 20.45H186.326C186.699 20.45 187.003 20.31 187.236 20.03C187.516 19.75 187.656 19.4233 187.656 19.05V9.04C187.656 8.66667 187.516 8.34 187.236 8.06C187.003 7.78 186.699 7.64 186.326 7.64H182.196C181.823 7.64 181.496 7.78 181.216 8.06C180.983 8.34 180.866 8.66667 180.866 9.04V12.61H171.556V9.25C171.556 3.09 174.449 0.00999963 180.236 0.00999963H188.006C193.793 0.00999963 196.686 3.09 196.686 9.25V19.82C196.686 25.98 193.793 29.06 188.006 29.06H182.336C181.963 29.06 181.636 29.2 181.356 29.48C181.123 29.76 181.006 30.0867 181.006 30.46ZM217.117 28.01V20.8H230.067V37.46C230.067 43.62 227.173 46.7 221.387 46.7H212.567C206.78 46.7 203.887 43.62 203.887 37.46V9.25C203.887 3.09 206.78 0.00999963 212.567 0.00999963H221.387C227.173 0.00999963 230.067 3.09 230.067 9.25V13.52H220.757V8.06C220.757 7.68666 220.617 7.36 220.337 7.08C220.103 6.8 219.8 6.66 219.427 6.66H215.017C214.643 6.66 214.317 6.8 214.037 7.08C213.803 7.36 213.687 7.68666 213.687 8.06V38.58C213.687 38.9533 213.803 39.28 214.037 39.56C214.317 39.84 214.643 39.98 215.017 39.98H219.427C219.8 39.98 220.103 39.84 220.337 39.56C220.617 39.28 220.757 38.9533 220.757 38.58V28.01H217.117ZM262.139 9.25V37.46C262.139 43.62 259.245 46.7 253.459 46.7H244.149C238.362 46.7 235.469 43.62 235.469 37.46V9.25C235.469 3.09 238.362 0.00999963 244.149 0.00999963H253.459C259.245 0.00999963 262.139 3.09 262.139 9.25ZM252.339 38.58V8.06C252.339 7.68666 252.199 7.36 251.919 7.08C251.685 6.8 251.382 6.66 251.009 6.66H246.599C246.225 6.66 245.899 6.8 245.619 7.08C245.385 7.36 245.269 7.68666 245.269 8.06V38.58C245.269 38.9533 245.385 39.28 245.619 39.56C245.899 39.84 246.225 39.98 246.599 39.98H251.009C251.382 39.98 251.685 39.84 251.919 39.56C252.199 39.28 252.339 38.9533 252.339 38.58Z" fill="white"/>
</svg>
